<?xml version="1.0" encoding="UTF-8" standalone="no"?>
<!DOCTYPE svg PUBLIC "-//W3C//DTD SVG 1.1//EN"
 "http://www.w3.org/Graphics/SVG/1.1/DTD/svg11.dtd">
<!-- Generated by graphviz version 7.0.5 (20221231.0122)
 -->
<!-- Title: snakemake_dag Pages: 1 -->
<svg width="274pt" height="260pt"
 viewBox="0.00 0.00 274.00 260.00" xmlns="http://www.w3.org/2000/svg" xmlns:xlink="http://www.w3.org/1999/xlink">
<g id="graph0" class="graph" transform="scale(1 1) rotate(0) translate(4 256)">
<title>snakemake_dag</title>
<polygon fill="white" stroke="none" points="-4,4 -4,-256 270,-256 270,4 -4,4"/>
<!-- 0 -->
<g id="node1" class="node">
<title>0</title>
<path fill="none" stroke="#d85656" stroke-width="2" stroke-dasharray="5,2" d="M132.5,-36C132.5,-36 79.5,-36 79.5,-36 73.5,-36 67.5,-30 67.5,-24 67.5,-24 67.5,-12 67.5,-12 67.5,-6 73.5,0 79.5,0 79.5,0 132.5,0 132.5,0 138.5,0 144.5,-6 144.5,-12 144.5,-12 144.5,-24 144.5,-24 144.5,-30 138.5,-36 132.5,-36"/>
<text text-anchor="middle" x="106" y="-15.5" font-family="sans" font-size="10.00">bcftools_call</text>
</g>
<!-- 1 -->
<g id="node2" class="node">
<title>1</title>
<path fill="none" stroke="#56d8d8" stroke-width="2" stroke-dasharray="5,2" d="M74,-180C74,-180 12,-180 12,-180 6,-180 0,-174 0,-168 0,-168 0,-156 0,-156 0,-150 6,-144 12,-144 12,-144 74,-144 74,-144 80,-144 86,-150 86,-156 86,-156 86,-168 86,-168 86,-174 80,-180 74,-180"/>
<text text-anchor="middle" x="43" y="-159.5" font-family="sans" font-size="10.00">samtools_sort</text>
</g>
<!-- 1&#45;&gt;0 -->
<g id="edge1" class="edge">
<title>1&#45;&gt;0</title>
<path fill="none" stroke="grey" stroke-width="2" d="M28.47,-143.05C15.27,-124.41 -0.27,-94.84 13,-72 22.32,-55.97 38.5,-44.38 54.78,-36.21"/>
<polygon fill="grey" stroke="grey" stroke-width="2" points="56.15,-39.43 63.8,-32.1 53.25,-33.06 56.15,-39.43"/>
</g>
<!-- 5 -->
<g id="node6" class="node">
<title>5</title>
<path fill="none" stroke="#59d856" stroke-width="2" stroke-dasharray="5,2" d="M104,-108C104,-108 34,-108 34,-108 28,-108 22,-102 22,-96 22,-96 22,-84 22,-84 22,-78 28,-72 34,-72 34,-72 104,-72 104,-72 110,-72 116,-78 116,-84 116,-84 116,-96 116,-96 116,-102 110,-108 104,-108"/>
<text text-anchor="middle" x="69" y="-87.5" font-family="sans" font-size="10.00">samtools_index</text>
</g>
<!-- 1&#45;&gt;5 -->
<g id="edge7" class="edge">
<title>1&#45;&gt;5</title>
<path fill="none" stroke="grey" stroke-width="2" d="M49.56,-143.34C52.07,-136.59 55,-128.69 57.82,-121.11"/>
<polygon fill="grey" stroke="grey" stroke-width="2" points="61.1,-122.33 61.3,-111.74 54.53,-119.9 61.1,-122.33"/>
</g>
<!-- 2 -->
<g id="node3" class="node">
<title>2</title>
<path fill="none" stroke="#d6d856" stroke-width="2" stroke-dasharray="5,2" d="M63.5,-252C63.5,-252 22.5,-252 22.5,-252 16.5,-252 10.5,-246 10.5,-240 10.5,-240 10.5,-228 10.5,-228 10.5,-222 16.5,-216 22.5,-216 22.5,-216 63.5,-216 63.5,-216 69.5,-216 75.5,-222 75.5,-228 75.5,-228 75.5,-240 75.5,-240 75.5,-246 69.5,-252 63.5,-252"/>
<text text-anchor="middle" x="43" y="-237" font-family="sans" font-size="10.00">bwa_map</text>
<text text-anchor="middle" x="43" y="-226" font-family="sans" font-size="10.00">sample: A</text>
</g>
<!-- 2&#45;&gt;1 -->
<g id="edge5" class="edge">
<title>2&#45;&gt;1</title>
<path fill="none" stroke="grey" stroke-width="2" d="M43,-215.34C43,-208.75 43,-201.08 43,-193.67"/>
<polygon fill="grey" stroke="grey" stroke-width="2" points="46.5,-193.93 43,-183.93 39.5,-193.93 46.5,-193.93"/>
</g>
<!-- 3 -->
<g id="node4" class="node">
<title>3</title>
<path fill="none" stroke="#56d8d8" stroke-width="2" stroke-dasharray="5,2" d="M201,-180C201,-180 139,-180 139,-180 133,-180 127,-174 127,-168 127,-168 127,-156 127,-156 127,-150 133,-144 139,-144 139,-144 201,-144 201,-144 207,-144 213,-150 213,-156 213,-156 213,-168 213,-168 213,-174 207,-180 201,-180"/>
<text text-anchor="middle" x="170" y="-159.5" font-family="sans" font-size="10.00">samtools_sort</text>
</g>
<!-- 3&#45;&gt;0 -->
<g id="edge2" class="edge">
<title>3&#45;&gt;0</title>
<path fill="none" stroke="grey" stroke-width="2" d="M161.89,-143.02C151.17,-119.22 132.13,-76.97 119.29,-48.48"/>
<polygon fill="grey" stroke="grey" stroke-width="2" points="122.58,-47.28 115.28,-39.6 116.2,-50.15 122.58,-47.28"/>
</g>
<!-- 6 -->
<g id="node7" class="node">
<title>6</title>
<path fill="none" stroke="#59d856" stroke-width="2" stroke-dasharray="5,2" d="M254,-108C254,-108 184,-108 184,-108 178,-108 172,-102 172,-96 172,-96 172,-84 172,-84 172,-78 178,-72 184,-72 184,-72 254,-72 254,-72 260,-72 266,-78 266,-84 266,-84 266,-96 266,-96 266,-102 260,-108 254,-108"/>
<text text-anchor="middle" x="219" y="-87.5" font-family="sans" font-size="10.00">samtools_index</text>
</g>
<!-- 3&#45;&gt;6 -->
<g id="edge8" class="edge">
<title>3&#45;&gt;6</title>
<path fill="none" stroke="grey" stroke-width="2" d="M182.36,-143.34C187.43,-136.1 193.43,-127.53 199.08,-119.45"/>
<polygon fill="grey" stroke="grey" stroke-width="2" points="201.87,-121.58 204.73,-111.38 196.13,-117.57 201.87,-121.58"/>
</g>
<!-- 4 -->
<g id="node5" class="node">
<title>4</title>
<path fill="none" stroke="#d6d856" stroke-width="2" stroke-dasharray="5,2" d="M190.5,-252C190.5,-252 149.5,-252 149.5,-252 143.5,-252 137.5,-246 137.5,-240 137.5,-240 137.5,-228 137.5,-228 137.5,-222 143.5,-216 149.5,-216 149.5,-216 190.5,-216 190.5,-216 196.5,-216 202.5,-222 202.5,-228 202.5,-228 202.5,-240 202.5,-240 202.5,-246 196.5,-252 190.5,-252"/>
<text text-anchor="middle" x="170" y="-237" font-family="sans" font-size="10.00">bwa_map</text>
<text text-anchor="middle" x="170" y="-226" font-family="sans" font-size="10.00">sample: B</text>
</g>
<!-- 4&#45;&gt;3 -->
<g id="edge6" class="edge">
<title>4&#45;&gt;3</title>
<path fill="none" stroke="grey" stroke-width="2" d="M170,-215.34C170,-208.75 170,-201.08 170,-193.67"/>
<polygon fill="grey" stroke="grey" stroke-width="2" points="173.5,-193.93 170,-183.93 166.5,-193.93 173.5,-193.93"/>
</g>
<!-- 5&#45;&gt;0 -->
<g id="edge3" class="edge">
<title>5&#45;&gt;0</title>
<path fill="none" stroke="grey" stroke-width="2" d="M78.34,-71.34C82.03,-64.34 86.38,-56.12 90.52,-48.28"/>
<polygon fill="grey" stroke="grey" stroke-width="2" points="93.54,-50.05 95.12,-39.58 87.36,-46.78 93.54,-50.05"/>
</g>
<!-- 6&#45;&gt;0 -->
<g id="edge4" class="edge">
<title>6&#45;&gt;0</title>
<path fill="none" stroke="grey" stroke-width="2" d="M190.19,-71.15C176.65,-62.76 160.28,-52.62 145.59,-43.52"/>
<polygon fill="grey" stroke="grey" stroke-width="2" points="147.67,-40.7 137.33,-38.41 143.99,-46.65 147.67,-40.7"/>
</g>
</g>
</svg>
