<?xml version="1.0" encoding="UTF-8" standalone="no"?>
<!DOCTYPE svg PUBLIC "-//W3C//DTD SVG 1.1//EN"
 "http://www.w3.org/Graphics/SVG/1.1/DTD/svg11.dtd">
<!-- Generated by graphviz version 7.0.5 (20221231.0122)
 -->
<!-- Title: snakemake_dag Pages: 1 -->
<svg width="274pt" height="332pt"
 viewBox="0.00 0.00 274.00 332.00" xmlns="http://www.w3.org/2000/svg" xmlns:xlink="http://www.w3.org/1999/xlink">
<g id="graph0" class="graph" transform="scale(1 1) rotate(0) translate(4 328)">
<title>snakemake_dag</title>
<polygon fill="white" stroke="none" points="-4,4 -4,-328 270,-328 270,4 -4,4"/>
<!-- 0 -->
<g id="node1" class="node">
<title>0</title>
<path fill="none" stroke="#afd856" stroke-width="2" d="M127.5,-36C127.5,-36 84.5,-36 84.5,-36 78.5,-36 72.5,-30 72.5,-24 72.5,-24 72.5,-12 72.5,-12 72.5,-6 78.5,0 84.5,0 84.5,0 127.5,0 127.5,0 133.5,0 139.5,-6 139.5,-12 139.5,-12 139.5,-24 139.5,-24 139.5,-30 133.5,-36 127.5,-36"/>
<text text-anchor="middle" x="106" y="-15.5" font-family="sans" font-size="10.00">plot_quals</text>
</g>
<!-- 1 -->
<g id="node2" class="node">
<title>1</title>
<path fill="none" stroke="#56d8a9" stroke-width="2" stroke-dasharray="5,2" d="M132.5,-108C132.5,-108 79.5,-108 79.5,-108 73.5,-108 67.5,-102 67.5,-96 67.5,-96 67.5,-84 67.5,-84 67.5,-78 73.5,-72 79.5,-72 79.5,-72 132.5,-72 132.5,-72 138.5,-72 144.5,-78 144.5,-84 144.5,-84 144.5,-96 144.5,-96 144.5,-102 138.5,-108 132.5,-108"/>
<text text-anchor="middle" x="106" y="-87.5" font-family="sans" font-size="10.00">bcftools_call</text>
</g>
<!-- 1&#45;&gt;0 -->
<g id="edge1" class="edge">
<title>1&#45;&gt;0</title>
<path fill="none" stroke="grey" stroke-width="2" d="M106,-71.34C106,-64.75 106,-57.08 106,-49.67"/>
<polygon fill="grey" stroke="grey" stroke-width="2" points="109.5,-49.93 106,-39.93 102.5,-49.93 109.5,-49.93"/>
</g>
<!-- 2 -->
<g id="node3" class="node">
<title>2</title>
<path fill="none" stroke="#56a9d8" stroke-width="2" stroke-dasharray="5,2" d="M74,-252C74,-252 12,-252 12,-252 6,-252 0,-246 0,-240 0,-240 0,-228 0,-228 0,-222 6,-216 12,-216 12,-216 74,-216 74,-216 80,-216 86,-222 86,-228 86,-228 86,-240 86,-240 86,-246 80,-252 74,-252"/>
<text text-anchor="middle" x="43" y="-231.5" font-family="sans" font-size="10.00">samtools_sort</text>
</g>
<!-- 2&#45;&gt;1 -->
<g id="edge2" class="edge">
<title>2&#45;&gt;1</title>
<path fill="none" stroke="grey" stroke-width="2" d="M28.47,-215.05C15.27,-196.41 -0.27,-166.84 13,-144 22.32,-127.97 38.5,-116.38 54.78,-108.21"/>
<polygon fill="grey" stroke="grey" stroke-width="2" points="56.15,-111.43 63.8,-104.1 53.25,-105.06 56.15,-111.43"/>
</g>
<!-- 6 -->
<g id="node7" class="node">
<title>6</title>
<path fill="none" stroke="#59d856" stroke-width="2" stroke-dasharray="5,2" d="M104,-180C104,-180 34,-180 34,-180 28,-180 22,-174 22,-168 22,-168 22,-156 22,-156 22,-150 28,-144 34,-144 34,-144 104,-144 104,-144 110,-144 116,-150 116,-156 116,-156 116,-168 116,-168 116,-174 110,-180 104,-180"/>
<text text-anchor="middle" x="69" y="-159.5" font-family="sans" font-size="10.00">samtools_index</text>
</g>
<!-- 2&#45;&gt;6 -->
<g id="edge8" class="edge">
<title>2&#45;&gt;6</title>
<path fill="none" stroke="grey" stroke-width="2" d="M49.56,-215.34C52.07,-208.59 55,-200.69 57.82,-193.11"/>
<polygon fill="grey" stroke="grey" stroke-width="2" points="61.1,-194.33 61.3,-183.74 54.53,-191.9 61.1,-194.33"/>
</g>
<!-- 3 -->
<g id="node4" class="node">
<title>3</title>
<path fill="none" stroke="#d8ac56" stroke-width="2" stroke-dasharray="5,2" d="M63.5,-324C63.5,-324 22.5,-324 22.5,-324 16.5,-324 10.5,-318 10.5,-312 10.5,-312 10.5,-300 10.5,-300 10.5,-294 16.5,-288 22.5,-288 22.5,-288 63.5,-288 63.5,-288 69.5,-288 75.5,-294 75.5,-300 75.5,-300 75.5,-312 75.5,-312 75.5,-318 69.5,-324 63.5,-324"/>
<text text-anchor="middle" x="43" y="-309" font-family="sans" font-size="10.00">bwa_map</text>
<text text-anchor="middle" x="43" y="-298" font-family="sans" font-size="10.00">sample: A</text>
</g>
<!-- 3&#45;&gt;2 -->
<g id="edge6" class="edge">
<title>3&#45;&gt;2</title>
<path fill="none" stroke="grey" stroke-width="2" d="M43,-287.34C43,-280.75 43,-273.08 43,-265.67"/>
<polygon fill="grey" stroke="grey" stroke-width="2" points="46.5,-265.93 43,-255.93 39.5,-265.93 46.5,-265.93"/>
</g>
<!-- 4 -->
<g id="node5" class="node">
<title>4</title>
<path fill="none" stroke="#56a9d8" stroke-width="2" stroke-dasharray="5,2" d="M201,-252C201,-252 139,-252 139,-252 133,-252 127,-246 127,-240 127,-240 127,-228 127,-228 127,-222 133,-216 139,-216 139,-216 201,-216 201,-216 207,-216 213,-222 213,-228 213,-228 213,-240 213,-240 213,-246 207,-252 201,-252"/>
<text text-anchor="middle" x="170" y="-231.5" font-family="sans" font-size="10.00">samtools_sort</text>
</g>
<!-- 4&#45;&gt;1 -->
<g id="edge3" class="edge">
<title>4&#45;&gt;1</title>
<path fill="none" stroke="grey" stroke-width="2" d="M161.89,-215.02C151.17,-191.22 132.13,-148.97 119.29,-120.48"/>
<polygon fill="grey" stroke="grey" stroke-width="2" points="122.58,-119.28 115.28,-111.6 116.2,-122.15 122.58,-119.28"/>
</g>
<!-- 7 -->
<g id="node8" class="node">
<title>7</title>
<path fill="none" stroke="#59d856" stroke-width="2" stroke-dasharray="5,2" d="M254,-180C254,-180 184,-180 184,-180 178,-180 172,-174 172,-168 172,-168 172,-156 172,-156 172,-150 178,-144 184,-144 184,-144 254,-144 254,-144 260,-144 266,-150 266,-156 266,-156 266,-168 266,-168 266,-174 260,-180 254,-180"/>
<text text-anchor="middle" x="219" y="-159.5" font-family="sans" font-size="10.00">samtools_index</text>
</g>
<!-- 4&#45;&gt;7 -->
<g id="edge9" class="edge">
<title>4&#45;&gt;7</title>
<path fill="none" stroke="grey" stroke-width="2" d="M182.36,-215.34C187.43,-208.1 193.43,-199.53 199.08,-191.45"/>
<polygon fill="grey" stroke="grey" stroke-width="2" points="201.87,-193.58 204.73,-183.38 196.13,-189.57 201.87,-193.58"/>
</g>
<!-- 5 -->
<g id="node6" class="node">
<title>5</title>
<path fill="none" stroke="#d8ac56" stroke-width="2" stroke-dasharray="5,2" d="M190.5,-324C190.5,-324 149.5,-324 149.5,-324 143.5,-324 137.5,-318 137.5,-312 137.5,-312 137.5,-300 137.5,-300 137.5,-294 143.5,-288 149.5,-288 149.5,-288 190.5,-288 190.5,-288 196.5,-288 202.5,-294 202.5,-300 202.5,-300 202.5,-312 202.5,-312 202.5,-318 196.5,-324 190.5,-324"/>
<text text-anchor="middle" x="170" y="-309" font-family="sans" font-size="10.00">bwa_map</text>
<text text-anchor="middle" x="170" y="-298" font-family="sans" font-size="10.00">sample: B</text>
</g>
<!-- 5&#45;&gt;4 -->
<g id="edge7" class="edge">
<title>5&#45;&gt;4</title>
<path fill="none" stroke="grey" stroke-width="2" d="M170,-287.34C170,-280.75 170,-273.08 170,-265.67"/>
<polygon fill="grey" stroke="grey" stroke-width="2" points="173.5,-265.93 170,-255.93 166.5,-265.93 173.5,-265.93"/>
</g>
<!-- 6&#45;&gt;1 -->
<g id="edge4" class="edge">
<title>6&#45;&gt;1</title>
<path fill="none" stroke="grey" stroke-width="2" d="M78.34,-143.34C82.03,-136.34 86.38,-128.12 90.52,-120.28"/>
<polygon fill="grey" stroke="grey" stroke-width="2" points="93.54,-122.05 95.12,-111.58 87.36,-118.78 93.54,-122.05"/>
</g>
<!-- 7&#45;&gt;1 -->
<g id="edge5" class="edge">
<title>7&#45;&gt;1</title>
<path fill="none" stroke="grey" stroke-width="2" d="M190.19,-143.15C176.65,-134.76 160.28,-124.62 145.59,-115.52"/>
<polygon fill="grey" stroke="grey" stroke-width="2" points="147.67,-112.7 137.33,-110.41 143.99,-118.65 147.67,-112.7"/>
</g>
</g>
</svg>
